<svg width="21" height="21" viewBox="0 0 21 21" fill="none" xmlns="http://www.w3.org/2000/svg">
<path d="M9.86383 3.22613C9.78489 3.14259 9.72317 3.04432 9.68221 2.93694C9.64125 2.82955 9.62183 2.71514 9.62508 2.60026C9.62833 2.48537 9.65418 2.37224 9.70115 2.26734C9.74812 2.16244 9.81529 2.06782 9.89883 1.98888C9.98236 1.90994 10.0806 1.84822 10.188 1.80726C10.2954 1.7663 10.4098 1.74689 10.5247 1.75014C10.6396 1.75339 10.7527 1.77923 10.8576 1.8262C10.9625 1.87317 11.0571 1.94034 11.1361 2.02388L18.5736 9.89888C18.7272 10.0613 18.8128 10.2764 18.8128 10.5C18.8128 10.7236 18.7272 10.9387 18.5736 11.1011L11.1361 18.977C11.0577 19.0624 10.9631 19.1313 10.8578 19.1798C10.7525 19.2283 10.6386 19.2554 10.5228 19.2595C10.4069 19.2636 10.2914 19.2447 10.183 19.2038C10.0745 19.1629 9.97524 19.1008 9.89096 19.0212C9.80667 18.9417 9.73905 18.8461 9.692 18.7402C9.64496 18.6342 9.61943 18.52 9.61691 18.4041C9.61438 18.2882 9.63491 18.173 9.6773 18.0651C9.71969 17.9572 9.78309 17.8588 9.86383 17.7756L16.7343 10.5L9.86383 3.22613Z" fill="black"/>
</svg>
