<svg width="24" height="24" viewBox="0 0 24 24" fill="none" xmlns="http://www.w3.org/2000/svg">
<path fill-rule="evenodd" clip-rule="evenodd" d="M4 21.25H2C1.80109 21.25 1.61032 21.329 1.46967 21.4697C1.32902 21.6103 1.25 21.8011 1.25 22C1.25 22.1989 1.32902 22.3897 1.46967 22.5303C1.61032 22.671 1.80109 22.75 2 22.75H22C22.1989 22.75 22.3897 22.671 22.5303 22.5303C22.671 22.3897 22.75 22.1989 22.75 22C22.75 21.8011 22.671 21.6103 22.5303 21.4697C22.3897 21.329 22.1989 21.25 22 21.25H20V16C20 13.2 20 11.8 19.455 10.73C18.9756 9.78923 18.2108 9.02436 17.27 8.545C16.2 8 14.8 8 12 8C9.2 8 7.8 8 6.73 8.545C5.78923 9.02436 5.02436 9.78923 4.545 10.73C4 11.8 4 13.2 4 16V21.25ZM13.5 17.5C13.5002 17.7635 13.4309 18.0223 13.2993 18.2505C13.1676 18.4788 12.9782 18.6683 12.75 18.8V21.25H11.25V18.8C11.022 18.6684 10.8327 18.479 10.701 18.2511C10.5694 18.0231 10.5 17.7645 10.5 17.5012C10.5 17.2379 10.5692 16.9793 10.7008 16.7513C10.8324 16.5232 11.0216 16.3339 11.2496 16.2022C11.4775 16.0705 11.7361 16.0011 11.9994 16.001C12.2627 16.0009 12.5213 16.07 12.7494 16.2016C12.9774 16.3331 13.1669 16.5223 13.2986 16.7502C13.4304 16.9782 13.4998 17.2367 13.5 17.5ZM15 10.065C14.8011 10.065 14.6103 10.144 14.4697 10.2847C14.329 10.4253 14.25 10.6161 14.25 10.815C14.25 11.0139 14.329 11.2047 14.4697 11.3453C14.6103 11.486 14.8011 11.565 15 11.565C15.842 11.565 16.464 12.203 16.436 12.973C16.4301 13.171 16.5027 13.3634 16.6381 13.508C16.7735 13.6526 16.9607 13.7378 17.1587 13.745C17.3567 13.7521 17.5494 13.6806 17.6949 13.5461C17.8403 13.4116 17.9267 13.2249 17.935 13.027C17.996 11.337 16.618 10.065 15 10.065Z" fill="#F53636"/>
<path d="M12.0001 1.25C12.199 1.25 12.3898 1.32902 12.5304 1.46967C12.6711 1.61032 12.7501 1.80109 12.7501 2V5C12.7501 5.19891 12.6711 5.38968 12.5304 5.53033C12.3898 5.67098 12.199 5.75 12.0001 5.75C11.8012 5.75 11.6104 5.67098 11.4698 5.53033C11.3291 5.38968 11.2501 5.19891 11.2501 5V2C11.2501 1.80109 11.3291 1.61032 11.4698 1.46967C11.6104 1.32902 11.8012 1.25 12.0001 1.25ZM21.5301 5.53L20.0301 7.03C19.9614 7.10369 19.8786 7.16279 19.7866 7.20378C19.6946 7.24477 19.5953 7.26682 19.4946 7.26859C19.3939 7.27037 19.2939 7.25184 19.2005 7.21412C19.1071 7.1764 19.0223 7.12026 18.9511 7.04904C18.8798 6.97782 18.8237 6.89299 18.786 6.7996C18.7482 6.70621 18.7297 6.60618 18.7315 6.50548C18.7333 6.40478 18.7553 6.30546 18.7963 6.21346C18.8373 6.12146 18.8964 6.03866 18.9701 5.97L20.4701 4.47C20.5388 4.39631 20.6216 4.33721 20.7136 4.29622C20.8056 4.25523 20.9049 4.23319 21.0056 4.23141C21.1063 4.22963 21.2063 4.24816 21.2997 4.28588C21.3931 4.3236 21.4779 4.37974 21.5491 4.45096C21.6203 4.52218 21.6765 4.60701 21.7142 4.7004C21.7519 4.79379 21.7705 4.89382 21.7687 4.99452C21.7669 5.09523 21.7449 5.19454 21.7039 5.28654C21.6629 5.37854 21.6038 5.46134 21.5301 5.53ZM3.53009 4.47C3.38792 4.33752 3.19987 4.2654 3.00557 4.26883C2.81127 4.27225 2.62588 4.35097 2.48847 4.48838C2.35106 4.62579 2.27234 4.81118 2.26892 5.00548C2.26549 5.19978 2.33761 5.38783 2.47009 5.53L3.97009 7.03C4.11227 7.16248 4.30031 7.2346 4.49461 7.23118C4.68891 7.22775 4.8743 7.14904 5.01171 7.01162C5.14913 6.87421 5.22784 6.68882 5.23127 6.49452C5.23469 6.30022 5.16257 6.11218 5.03009 5.97L3.53009 4.47Z" fill="#F53636"/>
</svg>
