<svg width="22" height="15" viewBox="0 0 22 15" fill="none" xmlns="http://www.w3.org/2000/svg">
<path fill-rule="evenodd" clip-rule="evenodd" d="M3 13.25H1C0.801088 13.25 0.610322 13.329 0.46967 13.4697C0.329018 13.6103 0.25 13.8011 0.25 14C0.25 14.1989 0.329018 14.3897 0.46967 14.5303C0.610322 14.671 0.801088 14.75 1 14.75H21C21.1989 14.75 21.3897 14.671 21.5303 14.5303C21.671 14.3897 21.75 14.1989 21.75 14C21.75 13.8011 21.671 13.6103 21.5303 13.4697C21.3897 13.329 21.1989 13.25 21 13.25H19V8C19 5.2 19 3.8 18.455 2.73C17.9756 1.78923 17.2108 1.02436 16.27 0.545C15.2 5.96046e-08 13.8 0 11 0C8.2 0 6.8 5.96046e-08 5.73 0.545C4.78923 1.02436 4.02436 1.78923 3.545 2.73C3 3.8 3 5.2 3 8V13.25ZM12.5 9.5C12.5002 9.76347 12.4309 10.0223 12.2993 10.2505C12.1676 10.4788 11.9782 10.6683 11.75 10.8V13.25H10.25V10.8C10.022 10.6684 9.83267 10.479 9.70102 10.2511C9.56937 10.0231 9.50004 9.76447 9.5 9.5012C9.49996 9.23794 9.5692 8.9793 9.70078 8.75127C9.83236 8.52325 10.0216 8.33387 10.2496 8.20216C10.4775 8.07046 10.7361 8.00107 10.9994 8.00096C11.2627 8.00086 11.5213 8.07004 11.7494 8.20156C11.9774 8.33309 12.1669 8.52231 12.2986 8.75023C12.4304 8.97815 12.4998 9.23674 12.5 9.5ZM14 2.065C13.8011 2.065 13.6103 2.14402 13.4697 2.28467C13.329 2.42532 13.25 2.61609 13.25 2.815C13.25 3.01391 13.329 3.20468 13.4697 3.34533C13.6103 3.48598 13.8011 3.565 14 3.565C14.842 3.565 15.464 4.203 15.436 4.973C15.4301 5.17103 15.5027 5.36337 15.6381 5.50801C15.7735 5.65264 15.9607 5.73783 16.1587 5.74496C16.3567 5.75209 16.5494 5.68059 16.6949 5.54607C16.8403 5.41156 16.9267 5.22495 16.935 5.027C16.996 3.337 15.618 2.065 14 2.065Z" fill="#F53636"/>
</svg>
